<svg xmlns="http://www.w3.org/2000/svg" viewBox="0 0 1024 1024" role="img" aria-label="BetterMail symbol"><rect x="24" y="24" width="976" height="976" rx="220" fill="#615FFF"/><path d="M92.9,604.69 L95.58,604.69 L98.27,593.94 L100.96,593.94 L106.33,585.88 L119.76,583.19 L119.76,580.51 L192.3,580.51 L192.3,583.19 L200.36,583.19 L200.36,585.88 L203.04,585.88 L205.73,591.25 L211.1,591.25 L216.48,599.31 L221.85,599.31 L221.85,602.0 L229.91,604.69 L235.28,612.75 L240.66,612.75 L243.34,618.12 L248.72,618.12 L254.09,626.18 L259.46,626.18 L262.15,631.55 L267.52,631.55 L270.21,636.93 L275.58,636.93 L275.58,639.61 L278.27,639.61 L280.96,644.99 L286.33,644.99 L291.7,653.04 L297.07,653.04 L299.76,658.42 L305.13,658.42 L307.82,663.79 L313.19,663.79 L318.57,671.85 L323.94,671.85 L323.94,674.54 L332.0,677.22 L337.37,685.28 L342.75,685.28 L345.43,690.66 L350.81,690.66 L356.18,698.72 L361.55,698.72 L364.24,704.09 L369.61,704.09 L374.99,712.15 L380.36,712.15 L383.04,717.52 L388.42,717.52 L391.1,722.9 L396.48,722.9 L401.85,730.96 L407.22,730.96 L412.6,739.01 L417.97,739.01 L420.66,744.39 L426.03,744.39 L431.4,752.45 L436.78,752.45 L439.46,757.82 L444.84,757.82 L447.52,763.19 L452.9,763.19 L452.9,765.88 L455.58,765.88 L458.27,771.25 L463.64,771.25 L466.33,776.63 L479.76,779.31 L479.76,782.0 L487.82,782.0 L487.82,784.69 L517.37,784.69 L517.37,782.0 L528.12,782.0 L528.12,779.31 L538.87,776.63 L541.55,771.25 L546.93,771.25 L552.3,763.19 L557.67,763.19 L560.36,757.82 L565.73,757.82 L568.42,752.45 L573.79,752.45 L576.48,747.07 L581.85,747.07 L587.22,739.01 L592.6,739.01 L592.6,736.33 L600.66,733.64 L606.03,725.58 L611.4,725.58 L614.09,720.21 L619.46,720.21 L619.46,717.52 L622.15,717.52 L624.84,712.15 L630.21,712.15 L635.58,704.09 L640.96,704.09 L643.64,698.72 L649.01,698.72 L651.7,693.34 L657.07,693.34 L662.45,685.28 L667.82,685.28 L670.51,679.91 L675.88,679.91 L681.25,671.85 L686.63,671.85 L689.31,666.48 L694.69,666.48 L700.06,658.42 L705.43,658.42 L705.43,655.73 L713.49,653.04 L718.87,644.99 L724.24,644.99 L726.93,639.61 L732.3,639.61 L737.67,631.55 L743.04,631.55 L745.73,626.18 L751.1,626.18 L756.48,618.12 L761.85,618.12 L764.54,612.75 L769.91,612.75 L775.28,604.69 L780.66,604.69 L783.34,599.31 L788.72,599.31 L788.72,596.63 L794.09,593.94 L794.09,583.19 L791.4,583.19 L786.03,575.13 L780.66,575.13 L775.28,567.07 L769.91,567.07 L769.91,564.39 L767.22,564.39 L764.54,559.01 L759.16,559.01 L753.79,550.96 L748.42,550.96 L745.73,545.58 L740.36,545.58 L734.99,537.52 L729.61,537.52 L726.93,532.15 L721.55,532.15 L716.18,524.09 L710.81,524.09 L708.12,518.72 L702.75,518.72 L697.37,510.66 L692.0,510.66 L689.31,505.28 L683.94,505.28 L678.57,497.22 L673.19,497.22 L670.51,491.85 L665.13,491.85 L659.76,483.79 L654.39,483.79 L651.7,478.42 L646.33,478.42 L640.96,470.36 L635.58,470.36 L635.58,467.67 L630.21,464.99 L630.21,451.55 L635.58,448.87 L635.58,443.49 L640.96,440.81 L640.96,435.43 L646.33,432.75 L646.33,427.37 L649.01,427.37 L649.01,422.0 L651.7,422.0 L651.7,413.94 L654.39,413.94 L654.39,408.57 L657.07,408.57 L659.76,389.76 L662.45,389.76 L662.45,376.33 L665.13,376.33 L665.13,319.91 L662.45,319.91 L659.76,298.42 L657.07,298.42 L657.07,290.36 L654.39,290.36 L654.39,284.99 L651.7,284.99 L646.33,268.87 L640.96,266.18 L640.96,260.81 L638.27,260.81 L638.27,258.12 L635.58,258.12 L635.58,255.43 L632.9,255.43 L619.46,239.31 L614.09,239.31 L611.4,233.94 L606.03,233.94 L606.03,231.25 L600.66,231.25 L597.97,225.88 L589.91,225.88 L589.91,223.19 L584.54,223.19 L584.54,220.51 L557.67,217.82 L557.67,215.13 L321.25,215.13 L321.25,217.82 L315.88,217.82 L315.88,223.19 L313.19,223.19 L313.19,379.01 L315.88,379.01 L315.88,381.7 L466.33,381.7 L466.33,384.39 L471.7,384.39 L471.7,389.76 L474.39,389.76 L474.39,392.45 L477.07,392.45 L477.07,395.13 L479.76,395.13 L479.76,397.82 L482.45,397.82 L482.45,400.51 L485.13,400.51 L485.13,403.19 L487.82,403.19 L487.82,405.88 L503.94,419.31 L503.94,424.69 L506.63,424.69 L506.63,427.37 L509.31,427.37 L509.31,430.06 L512.0,430.06 L512.0,432.75 L514.69,432.75 L514.69,435.43 L517.37,435.43 L517.37,438.12 L520.06,438.12 L520.06,440.81 L536.18,454.24 L536.18,459.61 L538.87,459.61 L538.87,475.73 L536.18,475.73 L522.75,491.85 L517.37,491.85 L517.37,494.54 L514.69,494.54 L514.69,497.22 L512.0,497.22 L512.0,499.91 L509.31,499.91 L509.31,502.6 L506.63,502.6 L506.63,505.28 L503.94,505.28 L503.94,507.97 L501.25,507.97 L501.25,510.66 L498.57,510.66 L498.57,513.34 L495.88,513.34 L495.88,516.03 L493.19,516.03 L493.19,518.72 L490.51,518.72 L490.51,521.4 L487.82,521.4 L487.82,524.09 L485.13,524.09 L485.13,526.78 L482.45,526.78 L482.45,529.46 L479.76,529.46 L479.76,532.15 L477.07,532.15 L477.07,534.84 L474.39,534.84 L474.39,537.52 L471.7,537.52 L471.7,540.21 L469.01,540.21 L469.01,542.9 L466.33,542.9 L466.33,545.58 L463.64,545.58 L450.21,561.7 L444.84,561.7 L444.84,564.39 L423.34,564.39 L423.34,561.7 L417.97,561.7 L417.97,556.33 L415.28,556.33 L415.28,526.78 L412.6,526.78 L409.91,521.4 L377.67,521.4 L377.67,524.09 L369.61,524.09 L369.61,521.4 L364.24,521.4 L364.24,524.09 L297.07,524.09 L297.07,521.4 L283.64,521.4 L283.64,524.09 L259.46,524.09 L259.46,521.4 L221.85,521.4 L221.85,524.09 L216.48,524.09 L216.48,521.4 L208.42,521.4 L208.42,524.09 L203.04,524.09 L203.04,521.4 L186.93,521.4 L186.93,524.09 L178.87,524.09 L178.87,521.4 L170.81,521.4 L170.81,518.72 L160.06,510.66 L160.06,78.12 L162.75,78.12 L162.75,72.75 L165.43,72.75 L170.81,64.69 L178.87,64.69 L178.87,62.0 L576.48,62.0 L576.48,64.69 L597.97,64.69 L597.97,67.37 L614.09,67.37 L614.09,70.06 L624.84,70.06 L624.84,72.75 L646.33,75.43 L646.33,78.12 L651.7,78.12 L651.7,80.81 L659.76,80.81 L659.76,83.49 L665.13,83.49 L665.13,86.18 L673.19,86.18 L673.19,88.87 L678.57,88.87 L678.57,91.55 L694.69,96.93 L697.37,102.3 L702.75,102.3 L702.75,104.99 L708.12,104.99 L713.49,113.04 L718.87,113.04 L726.93,123.79 L732.3,123.79 L732.3,126.48 L734.99,126.48 L734.99,129.16 L737.67,129.16 L737.67,131.85 L740.36,131.85 L740.36,134.54 L756.48,147.97 L756.48,153.34 L764.54,158.72 L764.54,164.09 L772.6,169.46 L775.28,180.21 L780.66,182.9 L786.03,199.01 L791.4,201.7 L791.4,209.76 L794.09,209.76 L794.09,215.13 L796.78,215.13 L796.78,220.51 L799.46,220.51 L799.46,228.57 L802.15,228.57 L802.15,236.63 L804.84,236.63 L804.84,244.69 L807.52,244.69 L807.52,252.75 L810.21,252.75 L810.21,263.49 L812.9,263.49 L812.9,274.24 L815.58,274.24 L815.58,290.36 L818.27,290.36 L818.27,370.96 L815.58,370.96 L815.58,387.07 L812.9,387.07 L810.21,413.94 L807.52,413.94 L807.52,422.0 L804.84,422.0 L802.15,438.12 L799.46,438.12 L799.46,443.49 L796.78,443.49 L796.78,454.24 L802.15,454.24 L802.15,456.93 L807.52,456.93 L810.21,462.3 L820.96,464.99 L823.64,470.36 L829.01,470.36 L829.01,473.04 L837.07,475.73 L839.76,481.1 L845.13,481.1 L845.13,483.79 L850.51,483.79 L853.19,489.16 L858.57,489.16 L858.57,491.85 L861.25,491.85 L863.94,497.22 L869.31,497.22 L874.69,505.28 L880.06,505.28 L880.06,507.97 L882.75,507.97 L882.75,510.66 L885.43,510.66 L885.43,513.34 L901.55,526.78 L901.55,532.15 L909.61,537.52 L909.61,542.9 L912.3,542.9 L912.3,548.27 L914.99,548.27 L914.99,553.64 L917.67,553.64 L917.67,559.01 L920.36,559.01 L920.36,564.39 L923.04,564.39 L925.73,583.19 L928.42,583.19 L928.42,593.94 L931.1,593.94 L931.1,618.12 L933.79,618.12 L933.79,870.66 L931.1,870.66 L928.42,897.52 L925.73,897.52 L925.73,902.9 L923.04,902.9 L917.67,919.01 L912.3,921.7 L912.3,927.07 L909.61,927.07 L901.55,937.82 L896.18,937.82 L890.81,945.88 L885.43,945.88 L885.43,948.57 L880.06,948.57 L880.06,951.25 L874.69,951.25 L874.69,953.94 L869.31,953.94 L869.31,956.63 L858.57,956.63 L858.57,959.31 L157.37,959.31 L157.37,956.63 L141.25,953.94 L141.25,951.25 L130.51,948.57 L122.45,937.82 L114.39,935.13 L114.39,929.76 L111.7,929.76 L111.7,927.07 L106.33,924.39 L106.33,919.01 L100.96,916.33 L98.27,902.9 L95.58,902.9 L95.58,894.84 L92.9,894.84Z" fill="#FFFFFF" fill-rule="evenodd" transform="translate(102 102) scale(.8)"/></svg>